<?xml version="1.0" encoding="UTF-8"?>
<svg id="Layer_1" xmlns="http://www.w3.org/2000/svg" version="1.1" viewBox="0 0 800 800">
  <!-- Generator: Adobe Illustrator 29.8.2, SVG Export Plug-In . SVG Version: 2.1.1 Build 3)  -->
  <defs>
    <style>
      .st0 {
        fill: #89664c;
      }
    </style>
  </defs>
  <path class="st0" d="M145,655c44.6,44.6,95.3,81.8,148.6,110.5-143.1,25.4-206.2-5.6-229.8-29.2-23.6-23.6-54.6-85.5-29.2-229.8,28.6,53.2,65.9,102.7,110.5,148.6ZM660.8,156.2c.3.3.5.6.8.9,40.6,43.1,74.8,89.4,102.6,137.8,25.5-143.3,3.1-215-20.5-238.6s-96.2-45-241.2-20c53.8,28.8,105,66.2,150,111.2,2.8,2.9,5.6,5.8,8.3,8.7ZM385,67.5h0s0,0,0,0h0ZM385,67.5c2.6.8,5.3,1.7,7.9,2.5,73.5,24.3,145.5,68.5,205.9,131.2,63.8,63.8,110,137.5,133.8,213.8-25,71.3-62.5,140-121.2,198.8-58.8,57.5-128.8,96.2-198.8,121.2-76.2-23.8-150-70-213.8-133.8-63.8-63.8-110-137.5-133.8-213.8,25-70,63.8-140,121.2-198.8,58.8-57.5,128.8-96.2,198.8-121.2ZM373.8,346.2c-12.5-12.5-32.5,7.5-20,20h0l30,30-39.4,39.4-29.4-29.4c-13.8-12.5-33.8,7.5-20,20l29.4,29.4-39.4,39.4-30-30c-12.5-12.5-32.5,7.5-20,20h0l30,30-17.5,17.5c-12.5,13.7,6.2,33.8,20,20h0s17.5-17.5,17.5-17.5l28.8,28.8c12.5,12.5,32.5-7.5,20-20l-28.8-28.8,39.4-39.4,29.4,29.4c12.5,12.5,32.5-7.5,20-20l-29.4-29.4,39.4-39.4,28.8,28.8c12.5,12.5,32.5-7.5,20-20l-28.7-28.8,39.4-39.4,29.4,29.4c12.5,12.5,32.5-7.5,20-20l-29.4-29.4,39.4-39.4,28.8,28.8c12.5,12.5,32.5-7.5,20-20l-28.7-28.8,17.5-17.5c12.5-12.5-7.5-32.5-20-20l-17.5,17.5-30-30c-12.5-12.5-32.5,7.5-20,20h0s30,30,30,30l-39.4,39.4-29.4-29.4c-13.8-12.5-32.5,7.5-20,20l29.4,29.4-39.4,39.4-30-30Z"/>
</svg>