<?xml version="1.0" encoding="UTF-8"?>
<svg id="Layer_1" xmlns="http://www.w3.org/2000/svg" version="1.1" viewBox="0 0 2560 1440">
  <!-- Generator: Adobe Illustrator 29.8.2, SVG Export Plug-In . SVG Version: 2.1.1 Build 3)  -->
  <defs>
    <style>
      .st0 {
        fill: #e50914;
      }
    </style>
  </defs>
  <path class="st0" d="M1847.03,984.86c29.3,2.24,58.55,4.65,87.77,7.25V476.78h-87.77v508.07ZM435.07,793.66l-114.32-316.88h-83.42v559.95c29.2-4.16,58.46-8.14,87.77-11.96v-304.5l101.65,292c31.97-3.71,64-7.22,96.09-10.52V476.78h-87.77v316.88ZM607.24,993.6c80.9-7.35,162.17-13.41,243.81-18.11v-86.49c-52.16,3.02-104.17,6.58-156.03,10.66v-130.93c34.03-.34,78.83-1.38,118.53-.88v-86.49c-31.71-.08-82.68.44-118.53.9v-118.2h156.03v-87.26h-243.81v516.81ZM907.31,564.04h91.86v404.42c29.21-1.1,58.47-2.01,87.77-2.78v-401.64h91.86v-87.26h-271.49v87.26ZM1235.08,963.32l87.77-.02v-199.67h118.98v-86.48h-118.98v-113.09h157.25v-87.26h-245.02v486.53ZM2321.66,476.78h-96.41l-63.56,147.31-57.1-147.31h-94.96l102.05,263.22-111.4,258.22c30.82,3.01,61.56,6.21,92.26,9.6l64.79-150.14,64.17,165.51c33.42,4.3,66.76,8.78,100.04,13.53l.14-.06-114.34-294.89,114.34-264.99ZM1624.13,476.73h-87.77v490.87c79.77,2.75,159.2,6.77,238.31,12.04v-86.48c-50.04-3.34-100.22-6.17-150.54-8.51v-407.93Z"/>
</svg>